HIERARCHY
ROOT hip
{
	OFFSET 0.000000 0.000000 0.000000
	CHANNELS 6 Xposition Yposition Zposition Xrotation Zrotation Yrotation 
	JOINT abdomen
	{
		OFFSET 0.000000 3.422050 0.000000
		CHANNELS 3 Xrotation Zrotation Yrotation 
		JOINT chest
		{
			OFFSET 0.000000 8.486693 -0.684411
			CHANNELS 3 Xrotation Zrotation Yrotation 
			JOINT neck
			{
				OFFSET 0.000000 10.266162 -0.273764
				CHANNELS 3 Xrotation Zrotation Yrotation 
				JOINT head
				{
					OFFSET 0.000000 3.148285 0.000000
					CHANNELS 3 Xrotation Zrotation Yrotation 
					End Site
					{
						OFFSET 0.000000 3.148289 0.000000
					}
				}
			}
			JOINT lCollar
			{
				OFFSET 3.422053 6.707223 -0.821293
				CHANNELS 3 Yrotation Zrotation Xrotation 
				JOINT lShldr
				{
					OFFSET 3.285171 0.000000 0.000000
					CHANNELS 3 Zrotation Yrotation Xrotation 
					JOINT lForeArm
					{
						OFFSET 10.129278 0.000000 0.000000
						CHANNELS 3 Yrotation Zrotation Xrotation 
						JOINT lHand
						{
							OFFSET 8.486692 0.000000 0.000000
							CHANNELS 3 Zrotation Yrotation Xrotation 
							End Site
							{
								OFFSET 4.106464 0.000000 0.000000
							}
						}
					}
				}
			}
			JOINT rCollar
			{
				OFFSET -3.558935 6.707223 -0.821293
				CHANNELS 3 Yrotation Zrotation Xrotation 
				JOINT rShldr
				{
					OFFSET -3.148289 0.000000 0.000000
					CHANNELS 3 Zrotation Yrotation Xrotation 
					JOINT rForeArm
					{
						OFFSET -10.266159 0.000000 0.000000
						CHANNELS 3 Yrotation Zrotation Xrotation 
						JOINT rHand
						{
							OFFSET -8.349810 0.000000 0.000000
							CHANNELS 3 Zrotation Yrotation Xrotation 
							End Site
							{
								OFFSET -4.106464 0.000000 0.000000
							}
						}
					}
				}
			}
		}
	}
	JOINT lThigh
	{
		OFFSET 5.338403 -1.642589 1.368821
		CHANNELS 3 Xrotation Zrotation Yrotation 
		JOINT lShin
		{
			OFFSET -2.053232 -20.121670 0.000000
			CHANNELS 3 Xrotation Zrotation Yrotation 
			JOINT lFoot
			{
				OFFSET 0.000000 -19.300380 -1.231939
				CHANNELS 3 Xrotation Yrotation Zrotation 
				End Site
				{
					OFFSET 0.000000 -2.463878 4.653993
				}
			}
		}
	}
	JOINT rThigh
	{
		OFFSET -5.338403 -1.642589 1.368821
		CHANNELS 3 Xrotation Zrotation Yrotation 
		JOINT rShin
		{
			OFFSET 2.053232 -20.121670 0.000000
			CHANNELS 3 Xrotation Zrotation Yrotation 
			JOINT rFoot
			{
				OFFSET 0.000000 -19.300380 -1.231939
				CHANNELS 3 Xrotation Yrotation Zrotation 
				End Site
				{
					OFFSET 0.000000 -2.463878 4.653993
				}
			}
		}
	}
}
MOTION
Frames: 16
Frame Time: 0.033264
0.820027 30.103437 1.565392 33.449879 0.000000 0.000000 -2.031465 0.608616 -0.241745 -5.957269 0.567262 -1.137911 -9.124995 0.000000 0.000000 -3.422119 11.627201 -0.270259 -40.597755 -43.752384 -5.807175 -33.223705 17.785479 -3.494678 -39.142246 -13.465710 -3.136621 48.244820 -35.683697 -41.622368 38.029297 39.863224 -3.471338 32.486336 -17.693743 -3.410693 37.570877 12.885174 -2.795160 -43.078030 38.545731 -41.084351 -34.416420 60.189785 -11.931684 85.592056 0.265818 -0.420466 67.548485 11.245223 -37.675953 -34.410339 -60.212975 11.907028 85.592049 -0.289270 0.427624 67.540962 -11.263377 37.655979 
0.820027 30.117105 1.466720 33.900784 0.000000 0.000000 -2.457220 0.608627 -0.241739 -5.631976 0.567249 -1.137877 -9.932392 0.000000 0.000000 -4.026262 11.553339 -0.276558 -40.848618 -43.317890 -6.067823 -33.346100 17.809908 -3.522713 -39.443626 -13.579884 -3.216208 48.237671 -35.485191 -41.489506 38.294888 39.435688 -3.744949 32.633316 -17.722977 -3.446271 37.867935 12.998624 -2.869728 -43.081100 38.337147 -40.971138 -35.457905 59.871929 -12.707645 85.889336 0.286246 -0.419350 67.673607 11.097889 -38.024532 -35.452621 -59.894989 12.683724 85.889351 -0.309900 0.426516 67.666336 -11.116219 38.005165 
0.820027 30.130772 1.368048 34.351658 0.000000 0.000000 -2.882951 0.608638 -0.241734 -5.306694 0.567235 -1.137844 -10.740388 0.000000 0.000000 -4.630491 11.479383 -0.282063 -41.094975 -42.882603 -6.324011 -33.468513 17.834269 -3.550804 -39.745308 -13.693645 -3.296449 48.231140 -35.286705 -41.357037 38.556202 39.007217 -4.014324 32.780342 -17.752125 -3.481934 38.165264 13.111691 -2.944930 -43.084679 38.128563 -40.858227 -36.480728 59.547169 -13.464581 86.186630 0.306669 -0.418129 67.797737 10.949824 -38.372593 -36.476208 -59.570118 13.441360 86.186623 -0.330524 0.425301 67.790733 -10.968323 38.353832 
0.820027 30.144438 1.269376 34.802490 0.000000 0.000000 -3.308649 0.608648 -0.241729 -4.981425 0.567221 -1.137810 -11.548911 0.000000 0.000000 -5.234777 11.405350 -0.286771 -41.336956 -42.446579 -6.575845 -33.590973 17.858582 -3.578957 -40.047279 -13.806990 -3.377342 48.225163 -35.088196 -41.224903 38.813354 38.577862 -4.279551 32.927406 -17.781183 -3.517680 38.462875 13.224374 -3.020766 -43.088768 37.919983 -40.745632 -37.485050 59.215752 -14.202647 86.483887 0.327083 -0.416801 67.920883 10.801033 -38.720139 -37.481274 -59.238605 14.180099 86.483887 -0.351140 0.423979 67.914146 -10.819695 38.701984 
0.820027 30.158106 1.170703 35.253265 0.000000 0.000000 -3.734296 0.608659 -0.241724 -4.656179 0.567207 -1.137776 -12.357875 0.000000 0.000000 -5.839087 11.331246 -0.290683 -41.574638 -42.009827 -6.823424 -33.713451 17.882830 -3.607166 -40.349560 -13.919912 -3.458883 48.219769 -34.889687 -41.093128 39.066422 38.147655 -4.540723 33.074516 -17.810158 -3.553510 38.760757 13.336661 -3.097232 -43.093369 37.711433 -40.633331 -38.471073 58.877953 -14.922044 86.781136 0.347490 -0.415368 68.043045 10.651525 -39.067158 -38.468010 -58.900696 14.900142 86.781143 -0.371748 0.422550 68.036568 -10.670346 39.049599 
0.820027 30.171772 1.072031 35.703979 0.000000 0.000000 -4.159887 0.608669 -0.241718 -4.330958 0.567193 -1.137743 -13.167204 0.000000 0.000000 -6.443390 11.257091 -0.293798 -41.808167 -41.572426 -7.066861 -33.835953 17.907022 -3.635433 -40.652115 -14.032406 -3.541071 48.214939 -34.691174 -40.961693 39.315479 37.716625 -4.797915 33.221664 -17.839043 -3.589423 39.058922 13.448559 -3.174329 -43.098465 37.502892 -40.521332 -39.439007 58.533993 -15.622993 87.078384 0.367887 -0.413828 68.164192 10.501305 -39.413628 -39.436596 -58.556583 15.601677 87.078384 -0.392347 0.421014 68.157974 -10.520289 39.396679 
0.820027 30.185438 0.973359 36.154598 0.000000 0.000000 -4.585406 0.608680 -0.241713 -4.005769 0.567178 -1.137709 -13.976819 0.000000 0.000000 -7.047654 11.182891 -0.296114 -42.037594 -41.134369 -7.306243 -33.958485 17.931162 -3.663758 -40.954964 -14.144467 -3.623903 48.210674 -34.492664 -40.830601 39.560608 37.284809 -5.051214 33.368855 -17.867840 -3.625420 39.357342 13.560049 -3.252052 -43.104061 37.294365 -40.409626 -40.389076 58.184101 -16.305723 87.375587 0.388275 -0.412184 68.284363 10.350392 -39.759583 -40.387299 -58.206566 16.284971 87.375587 -0.412937 0.419372 68.278389 -10.369532 39.743225 
0.820027 30.199106 0.874687 36.605129 0.000000 0.000000 -5.010845 0.608691 -0.241709 -3.680617 0.567163 -1.137676 -14.786634 0.000000 0.000000 -7.651845 11.108663 -0.297633 -42.263035 -40.695713 -7.541671 -34.081055 17.955236 -3.692142 -41.258091 -14.256090 -3.707377 48.206970 -34.294159 -40.699844 39.801922 36.852276 -5.300705 33.516087 -17.896547 -3.661499 39.656033 13.671133 -3.330400 -43.110149 37.085869 -40.298210 -41.321579 57.828548 -16.970509 87.672760 0.408651 -0.410433 68.403511 10.198788 -40.104980 -41.320370 -57.850849 16.950274 87.672791 -0.433515 0.417623 68.397820 -10.218088 40.089241 
0.820027 30.212772 0.776014 37.055538 0.000000 0.000000 -5.436188 0.608702 -0.241704 -3.355506 0.567149 -1.137643 -15.596568 0.000000 0.000000 -8.255930 11.034412 -0.298354 -42.484585 -40.256489 -7.773238 -34.203644 17.979261 -3.720583 -41.561512 -14.367270 -3.791491 48.203823 -34.095661 -40.569424 40.039448 36.419022 -5.546456 33.663353 -17.925163 -3.697660 39.954990 13.781809 -3.409372 -43.116722 36.877388 -40.187073 -42.236725 57.467491 -17.617599 87.969917 0.429017 -0.408577 68.521660 10.046507 -40.449841 -42.236107 -57.489681 17.597879 87.969925 -0.454082 0.415767 68.516220 -10.065956 40.434692 
0.820027 30.226440 0.677342 37.505833 0.000000 0.000000 -5.861427 0.608713 -0.241699 -3.030444 0.567134 -1.137610 -16.406544 0.000000 0.000000 -8.859879 10.960159 -0.298277 -42.702328 -39.816727 -8.001033 -34.326252 18.003218 -3.749079 -41.865204 -14.478004 -3.876243 48.201229 -33.897175 -40.439327 40.273293 35.985100 -5.788550 33.810658 -17.953691 -3.733903 40.254192 13.892064 -3.488962 -43.123814 36.668949 -40.076237 -43.134857 57.101234 -18.247309 88.267029 0.449369 -0.406616 68.638794 9.893565 -40.794155 -43.134773 -57.123272 18.228058 88.267052 -0.474636 0.413805 68.633629 -9.913163 40.779617 
0.820027 30.240107 0.578670 37.955978 0.000000 0.000000 -6.286546 0.608723 -0.241694 -2.705433 0.567118 -1.137577 -17.216478 0.000000 0.000000 -9.463660 10.885914 -0.297403 -42.916355 -39.376469 -8.225141 -34.448895 18.027121 -3.777635 -42.169167 -14.588280 -3.961628 48.199181 -33.698700 -40.309551 40.503529 35.550545 -6.027064 33.958000 -17.982130 -3.770228 40.553661 14.001900 -3.569173 -43.131348 36.460522 -39.965652 -44.016243 56.729935 -18.859926 88.564117 0.469709 -0.404549 68.754921 9.739959 -41.137913 -44.016663 -56.751820 18.841114 88.564148 -0.495177 0.411737 68.749992 -9.759706 41.123970 
0.820027 30.253773 0.479998 38.405983 0.000000 0.000000 -6.711541 0.608735 -0.241689 -2.380479 0.567103 -1.137543 -18.026293 0.000000 0.000000 -10.067246 10.811687 -0.295733 -43.126755 -38.935741 -8.445654 -34.571571 18.050968 -3.806247 -42.473408 -14.698097 -4.047647 48.197678 -33.500237 -40.180099 40.730221 35.115395 -6.262070 34.105377 -18.010481 -3.806634 40.853382 14.111308 -3.649999 -43.139370 36.252136 -39.855347 -44.881199 56.353817 -19.455761 88.861137 0.490034 -0.402378 68.870026 9.585710 -41.481121 -44.882088 -56.375553 19.437361 88.861183 -0.515705 0.409563 68.865364 -9.605605 41.467781 
0.820027 30.267441 0.381325 38.855804 0.000000 0.000000 -7.136392 0.608745 -0.241685 -2.055589 0.567087 -1.137511 -18.835901 0.000000 0.000000 -10.670594 10.737492 -0.293268 -43.333603 -38.494587 -8.662651 -34.694263 18.074751 -3.834915 -42.777912 -14.807452 -4.134294 48.196716 -33.301800 -40.050964 40.953461 34.679691 -6.493640 34.252796 -18.038738 -3.843122 41.153358 14.220287 -3.731440 -43.147873 36.043781 -39.745316 -45.730049 55.973125 -20.035145 89.158142 0.510345 -0.400101 68.984123 9.430825 -41.823776 -45.731396 -55.994701 20.017130 89.158173 -0.536217 0.407282 68.979706 -9.450859 41.811024 
0.820027 30.281107 0.282653 39.305458 0.000000 0.000000 -7.561090 0.608756 -0.241680 -1.730766 0.567072 -1.137478 -19.645229 0.000000 0.000000 -11.273682 10.663341 -0.290009 -43.536980 -38.053020 -8.876211 -34.816982 18.098476 -3.863640 -43.082687 -14.916339 -4.221569 48.196281 -33.103374 -39.922127 41.173298 34.243450 -6.721841 34.400253 -18.066906 -3.879690 41.453571 14.328831 -3.813491 -43.156849 35.835468 -39.635551 -46.563118 55.588024 -20.598394 89.455078 0.530640 -0.397720 69.097183 9.275311 -42.165859 -46.564869 -55.609425 20.580730 89.455109 -0.556714 0.404896 69.093018 -9.295485 42.153698 
0.820027 30.294773 0.183981 39.754913 0.000000 0.000000 -7.985627 0.608767 -0.241676 -1.406017 0.567055 -1.137445 -20.454203 0.000000 0.000000 -11.876475 10.589246 -0.285959 -43.736961 -37.611080 -9.086413 -34.939724 18.122139 -3.892421 -43.387718 -15.024755 -4.309467 48.196400 -32.904980 -39.793613 41.389793 33.806709 -6.946744 34.547749 -18.094984 -3.916339 41.754025 14.436927 -3.896150 -43.166275 35.627186 -39.526028 -47.380695 55.198689 -21.145826 89.751968 0.550919 -0.395234 69.209213 9.119183 -42.507374 -47.382877 -55.219963 21.128511 89.751999 -0.577194 0.402404 69.205307 -9.139491 42.495811 
0.820027 30.308441 0.085309 40.204159 0.000000 0.000000 -8.409986 0.608778 -0.241672 -1.081346 0.567039 -1.137413 -21.262722 0.000000 0.000000 -12.478940 10.515221 -0.281118 -43.933651 -37.168816 -9.293341 -35.062496 18.145748 -3.921259 -43.693008 -15.132689 -4.397986 48.197025 -32.706608 -39.665390 41.603046 33.369518 -7.168415 34.695267 -18.122971 -3.953066 42.054729 14.544584 -3.979417 -43.176182 35.418953 -39.416782 -48.183170 54.805382 -21.677799 90.048782 0.571181 -0.392643 69.320229 8.962453 -42.848331 -48.185699 -54.826462 21.660778 90.048828 -0.597656 0.399806 69.316574 -8.982897 42.837364 
